PathFileType	4	(X/Y/Z)	/Users/itak/Documents/Research/Walk-IL/dataset/trc/00458_00167.trc
DataRate	CameraRate	NumFrames	NumMarkers	Units	OrigDataRate	OrigDataStartFrame	OrigNumFrames
100.000000	100.000000	4	53	mm	100.000000	258	517
Frame#	Time	RPSI			LPSI			L3			STRN			T10			C7			CLAV			RBAK			LBAK			LSHO			LUPA			LAEL			LAOL			LWTS			LWPS			LFRA			LIFD			LHPS			LHTS			RSHO			RUPA			RAEL			RAOL			RWTS			RWPS			RFRA			RIFD			RHTS			RHPS			RBHD			LFHD			RFHD			LBHD			LHIP			RHIP			RASI			LASI			LKNE			LTHI			LANK			LTIP			LTOE			LMT1			LMT5			LHEE			RKNE			RTHI			RANK			RTIP			RTOE			RMT1			RMT5			RHEE			
		X1	Y1	Z1	X2	Y2	Z2	X3	Y3	Z3	X4	Y4	Z4	X5	Y5	Z5	X6	Y6	Z6	X7	Y7	Z7	X8	Y8	Z8	X9	Y9	Z9	X10	Y10	Z10	X11	Y11	Z11	X12	Y12	Z12	X13	Y13	Z13	X14	Y14	Z14	X15	Y15	Z15	X16	Y16	Z16	X17	Y17	Z17	X18	Y18	Z18	X19	Y19	Z19	X20	Y20	Z20	X21	Y21	Z21	X22	Y22	Z22	X23	Y23	Z23	X24	Y24	Z24	X25	Y25	Z25	X26	Y26	Z26	X27	Y27	Z27	X28	Y28	Z28	X29	Y29	Z29	X30	Y30	Z30	X31	Y31	Z31	X32	Y32	Z32	X33	Y33	Z33	X34	Y34	Z34	X35	Y35	Z35	X36	Y36	Z36	X37	Y37	Z37	X38	Y38	Z38	X39	Y39	Z39	X40	Y40	Z40	X41	Y41	Z41	X42	Y42	Z42	X43	Y43	Z43	X44	Y44	Z44	X45	Y45	Z45	X46	Y46	Z46	X47	Y47	Z47	X48	Y48	Z48	X49	Y49	Z49	X50	Y50	Z50	X51	Y51	Z51	X52	Y52	Z52	X53	Y53	Z53	

259	2.58	-137.0662841796875	942.9290161132812	-797.4014892578125	-24.22434043884277	950.6837768554688	-882.3352661132812	-72.11474609375	1049.279907226562	-824.4371948242188	86.072265625	1236.250732421875	-592.9993896484375	-69.80350494384766	1173.035400390625	-838.8444213867188	-43.60781097412109	1437.629028320312	-761.962158203125	65.28987121582031	1350.949462890625	-616.5341186523438	-153.5235443115234	1317.583740234375	-776.6738891601562	26.98748397827148	1396.991943359375	-844.0339965820312	144.1312866210938	1424.533813476562	-795.7947387695312	240.8562316894531	1327.529907226562	-859.002685546875	342.8659362792969	1139.32275390625	-871.8651123046875	255.1275177001953	1095.951049804688	-905.1439208984375	419.1139526367188	946.3413696289062	-796.2100219726562	439.3177185058594	943.8919067382812	-867.8896484375	389.5284118652344	1062.152221679688	-865.6403198242188	492.0634460449219	793.7011108398438	-810.8060913085938	474.9149780273438	874.8719482421875	-867.8623657226562	470.852783203125	874.6658935546875	-795.8937377929688	-147.9629669189453	1402.657592773438	-627.8392944335938	-223.0482177734375	1341.730590820312	-616.412109375	-286.6012268066406	1059.257568359375	-618.3411254882812	-268.6162719726562	1047.369384765625	-682.8397216796875	-211.6958770751953	846.1895751953125	-561.6358032226562	-291.7424926757812	837.0819091796875	-599.9212646484375	-296.2628173828125	1000.487365722656	-615.8136596679688	-226.1251525878906	689.242919921875	-573.6006469726562	-221.1694793701172	745.7531127929688	-554.8068237304688	-285.8156127929688	749.3335571289062	-595.571044921875	-68.57083129882812	1629.693481445312	-630.7468872070312	125.6549224853516	1627.161987304688	-560.5455932617188	3.752841949462891	1623.661865234375	-513.68896484375	90.59581756591797	1641.462768554688	-708.6123657226562	145.3059844970703	849.9360961914062	-854.4892578125	-167.8114166259766	850.6373901367188	-604.4913330078125	-56.14006423950195	899.0875854492188	-576.2308349609375	151.3111419677734	885.2085571289062	-726.5148315429688	89.63127136230469	436.5121459960938	-867.1768798828125	133.6855621337891	586.201904296875	-846.047119140625	-23.23352432250977	40.8921012878418	-969.8130493164062	72.92755889892578	288.9136047363281	-903.2399291992188	116.3008270263672	40.18331146240234	-768.00439453125	39.82941436767578	48.38069152832031	-793.3110961914062	108.8666687011719	39.28885269165039	-888.2052612304688	-98.57892608642578	47.25926971435547	-944.081787109375	-43.14849090576172	482.0226440429688	-502.3356018066406	-124.5016021728516	731.3756103515625	-538.2560424804688	3.487091302871704	46.90710067749023	-515.4212036132812	-30.18392753601074	338.920166015625	-484.2053527832031	119.1832046508789	78.50812530517578	-333.6585083007812	132.8821563720703	75.08162689208984	-406.2185974121094	30.52139472961426	57.04326629638672	-388.8890686035156	23.59138488769531	45.93714904785156	-592.7747802734375	
260	2.59	-132.3079071044922	942.0185546875	-794.7255859375	-18.7343635559082	950.0272827148438	-878.4161987304688	-67.31406402587891	1048.061645507812	-820.897705078125	88.77375030517578	1234.929565429688	-588.0004272460938	-65.07667541503906	1171.85791015625	-835.1952514648438	-39.84156799316406	1436.369262695312	-757.7958374023438	68.05326080322266	1349.622924804688	-611.6017456054688	-149.3613739013672	1316.207641601562	-773.3944702148438	31.48102951049805	1395.856079101562	-839.4151611328125	148.1448822021484	1423.470825195312	-790.2197875976562	245.5354156494141	1326.679809570312	-852.5859985351562	348.2567749023438	1138.6572265625	-863.9457397460938	261.0317077636719	1094.869750976562	-897.9655151367188	424.0533752441406	946.78515625	-785.2965087890625	445.2489929199219	943.533935546875	-856.6456909179688	395.07177734375	1061.652465820312	-856.3815307617188	497.7277221679688	794.3118896484375	-796.9249267578125	481.0149536132812	874.6314697265625	-855.2648315429688	476.0306701660156	875.3507690429688	-783.3538818359375	-145.1121215820312	1401.13330078125	-624.396484375	-220.1799621582031	1340.076904296875	-613.6220092773438	-282.7673034667969	1057.206665039062	-616.676025390625	-264.5025634765625	1045.59619140625	-681.160400390625	-206.9374694824219	844.3883056640625	-560.5511474609375	-286.696533203125	834.8467407226562	-598.72412109375	-292.1201782226562	998.3624267578125	-614.3322143554688	-219.9349060058594	687.357421875	-573.2453002929688	-215.3762664794922	743.7871704101562	-554.1937255859375	-280.0381469726562	747.0911254882812	-594.9103393554688	-65.93124389648438	1628.40625	-626.973388671875	127.7802352905273	1626.183471679688	-555.4288940429688	5.580045700073242	1622.585815429688	-509.4030456542969	93.71554565429688	1640.269409179688	-703.7395629882812	150.268310546875	849.0189208984375	-849.597412109375	-164.9931945800781	848.9180297851562	-602.6500854492188	-53.65872955322266	897.3096313476562	-572.738037109375	155.3155364990234	883.8019409179688	-721.2410888671875	91.26220703125	436.08837890625	-865.40380859375	136.3920135498047	585.3170166015625	-843.1604614257812	-23.17487525939941	41.1100959777832	-969.8059692382812	73.91291046142578	288.8397216796875	-902.2576293945312	116.2374572753906	40.16659545898438	-767.9661865234375	39.83211517333984	48.42431259155273	-793.3278198242188	108.9223251342773	39.23981857299805	-888.2396850585938	-98.40731811523438	47.76774597167969	-944.1864013671875	-42.56076049804688	479.4460754394531	-500.840576171875	-123.5677185058594	729.2425537109375	-536.7571411132812	11.74585723876953	44.907958984375	-500.0489196777344	-28.05856895446777	337.8247985839844	-478.6225891113281	124.2016067504883	81.23289489746094	-317.1943359375	138.8847045898438	77.38777923583984	-389.536865234375	36.83274841308594	57.00887680053711	-373.1972351074219	32.8159294128418	43.4986572265625	-576.9798583984375	
261	2.6	-127.6191024780273	940.992919921875	-791.8231201171875	-13.35161590576172	949.329833984375	-874.318359375	-62.60514068603516	1046.760009765625	-817.1771850585938	91.39900970458984	1233.5244140625	-582.8508911132812	-60.44502639770508	1170.602905273438	-831.3496704101562	-36.16542053222656	1435.043579101562	-753.4686279296875	70.72606658935547	1348.210571289062	-606.5086669921875	-145.3336334228516	1314.763427734375	-769.9349365234375	35.82287216186523	1394.645385742188	-834.6383666992188	152.0552215576172	1422.296508789062	-784.5074462890625	250.0408477783203	1325.653076171875	-846.03173828125	353.3630065917969	1137.778442382812	-855.8723754882812	266.630126953125	1093.633544921875	-890.63232421875	428.5115661621094	946.9620971679688	-774.2806396484375	450.695556640625	942.9136352539062	-845.2754516601562	400.2546997070312	1060.915405273438	-846.9839477539062	502.6242980957031	794.5878295898438	-783.0126953125	486.4957580566406	874.0748291015625	-842.5735473632812	480.60009765625	875.6975708007812	-770.7529907226562	-142.3147277832031	1399.523681640625	-620.7670288085938	-217.4033508300781	1338.34423828125	-610.6412353515625	-279.0345153808594	1055.082397460938	-614.7501220703125	-260.5482482910156	1043.74658203125	-679.2179565429688	-202.3037719726562	842.5216674804688	-559.23388671875	-281.7320556640625	832.5548095703125	-597.183837890625	-288.0889892578125	996.1818237304688	-612.5503540039062	-213.7802276611328	685.4508666992188	-572.5498046875	-209.60302734375	741.8052368164062	-553.279296875	-274.3091125488281	744.7828979492188	-593.8959350585938	-63.36752319335938	1627.069213867188	-623.0607299804688	129.8365478515625	1625.168701171875	-550.2322387695312	7.364578723907471	1621.483520507812	-504.9949645996094	96.71936798095703	1639.016967773438	-698.7672119140625	155.1613311767578	848.0950317382812	-844.6078491210938	-162.0196990966797	846.8782348632812	-600.6765747070312	-51.1031494140625	895.4284057617188	-569.0906982421875	159.3113403320312	882.3674926757812	-715.8641967773438	92.96772003173828	435.6514892578125	-863.5479125976562	139.1357116699219	584.4375	-840.17041015625	-23.05912780761719	41.38353729248047	-969.8158569335938	74.97860717773438	288.76513671875	-901.231201171875	116.1647644042969	40.15445327758789	-767.9359130859375	39.83277893066406	48.47463607788086	-793.3606567382812	108.9987640380859	39.18458938598633	-888.2841186523438	-98.21015167236328	48.34099197387695	-944.3403930664062	-41.70034790039062	476.91357421875	-499.1972351074219	-122.4492568969727	727.049560546875	-534.9845581054688	19.24288749694824	43.2973747253418	-485.2734680175781	-26.0682201385498	336.8539428710938	-473.2952270507812	128.5991973876953	84.10040283203125	-301.5433654785156	144.1811981201172	79.9456787109375	-373.6788940429688	42.52541351318359	57.18931198120117	-358.1988830566406	41.25032043457031	41.57619857788086	-561.8279418945312	
262	2.61	-123.0092391967773	939.8696899414062	-788.6838989257812	-8.09111499786377	948.5975952148438	-870.0399780273438	-57.98831558227539	1045.389892578125	-813.2748413085938	93.94464874267578	1232.042846679688	-577.544677734375	-55.90150833129883	1169.28173828125	-827.311767578125	-32.57571792602539	1433.657836914062	-748.9794921875	73.31072235107422	1346.722778320312	-601.2536010742188	-141.4411926269531	1313.265747070312	-766.3091430664062	40.024658203125	1393.378662109375	-829.7013549804688	155.8661499023438	1421.020751953125	-778.6494750976562	254.3780975341797	1324.455932617188	-839.3331298828125	358.1792297363281	1136.692749023438	-847.6480102539062	271.9145202636719	1092.2451171875	-883.1516723632812	432.4844970703125	946.8720703125	-763.1801147460938	455.6510314941406	942.0386962890625	-833.7999877929688	405.0724182128906	1059.950439453125	-837.4527587890625	506.7692565917969	794.5267944335938	-769.0936889648438	491.3776245117188	873.2211303710938	-829.8107299804688	484.566162109375	875.7178344726562	-758.112548828125	-139.5818481445312	1397.842895507812	-616.9685668945312	-214.7229614257812	1336.537231445312	-607.4808959960938	-275.3985290527344	1052.895263671875	-612.5608520507812	-256.7398986816406	1041.827392578125	-677.0139770507812	-197.7784881591797	840.6026611328125	-557.650390625	-276.8697814941406	830.2183227539062	-595.3075561523438	-284.1641845703125	993.9564819335938	-610.4715576171875	-207.7119903564453	683.5274047851562	-571.4932861328125	-203.8952789306641	739.81201171875	-552.0442504882812	-268.6694641113281	742.4267578125	-592.5224609375	-60.88570022583008	1625.68994140625	-619.0061645507812	131.8238983154297	1624.133056640625	-544.9526977539062	9.101120948791504	1620.367553710938	-500.4622192382812	99.60833740234375	1637.712524414062	-693.6964721679688	159.9701385498047	847.1622314453125	-839.5110473632812	-158.8963470458984	844.5202026367188	-598.56005859375	-48.48114395141602	893.4638671875	-565.2765502929688	163.2933502197266	880.9125366210938	-710.3819580078125	94.75342559814453	435.2072448730469	-861.5973510742188	141.9193878173828	583.5656127929688	-837.0496215820312	-22.87154388427734	41.715576171875	-969.8506469726562	76.13741302490234	288.6934814453125	-900.153076171875	116.0760040283203	40.14653015136719	-767.9159545898438	39.82946014404297	48.53097534179688	-793.4158325195312	109.095100402832	39.12160491943359	-888.3358764648438	-97.97505187988281	48.98947525024414	-944.554443359375	-40.5729866027832	474.4335021972656	-497.4134216308594	-121.1337738037109	724.8148803710938	-532.9229125976562	25.96074867248535	41.99307250976562	-471.1877136230469	-24.1828670501709	335.9596557617188	-468.2427368164062	132.3578948974609	87.06765747070312	-286.772705078125	148.7635040283203	82.64319610595703	-358.7105712890625	47.56238555908203	57.58793258666992	-343.9869689941406	48.89730834960938	40.00762176513672	-547.4212646484375	
